<svg width="26" height="31" viewBox="0 0 26 31" fill="none" xmlns="http://www.w3.org/2000/svg">
<g clip-path="url(#clip0_70_14216)">
<path d="M1.74399 4.64527C1.74399 4.64527 0 4.95679 0 6.40364V16.947C0 22.5821 8.41422 28.8541 11.2699 30.7232C11.8397 31.097 12.5762 31.097 13.1459 30.7232C16.0086 28.861 24.4158 22.589 24.4158 16.947V6.40364C24.4158 4.95679 22.6718 4.64527 22.6718 4.64527L13.2432 1.72388C12.5692 1.51619 11.8466 1.51619 11.1726 1.72388L1.74399 4.64527Z" fill="#E7EFFD"/>
<path d="M3.86317 3.41296C3.86317 3.41296 3.91876 3.39912 3.9535 3.39219L13.3821 0.470801C13.9102 0.304655 14.48 0.304655 15.008 0.470801L24.4367 3.39219C24.4367 3.39219 24.4922 3.40604 24.527 3.41296C24.527 3.41296 24.5409 3.41296 24.5617 3.41988C24.5965 3.42681 24.6451 3.44065 24.7076 3.46142C24.8327 3.50296 24.9925 3.56526 25.1523 3.65526C25.458 3.83525 25.6595 4.07062 25.6595 4.4306V14.9739C25.6595 16.1992 25.201 17.5146 24.4019 18.8645C23.6098 20.2075 22.512 21.5298 21.31 22.7551C18.899 25.2126 16.1267 27.2133 14.7301 28.1202C14.4105 28.3279 14.0005 28.3279 13.6809 28.1202C12.2774 27.2064 9.51202 25.2057 7.10101 22.7482C5.89898 21.5228 4.80117 20.2006 4.00908 18.8576C3.21699 17.5146 2.75146 16.1993 2.75146 14.967V4.4306C2.75146 4.07062 2.94601 3.83525 3.25868 3.65526C3.41154 3.56526 3.57135 3.50296 3.70336 3.46142C3.7659 3.44065 3.81453 3.42681 3.84927 3.41988C3.86317 3.41988 3.87707 3.41988 3.88401 3.41296H3.86317Z" stroke="#0046C7" stroke-width="0.5"/>
<path d="M8.14323 10.8547H7.44147L8.14323 12.5023L7.52484 13.9284L6.20469 10.8547H5.50293L7.30945 15.0914H7.74718L8.49759 13.3469L9.24799 15.0914H9.68572L11.4922 10.8547H10.7905L9.47033 13.9561L8.15018 10.8547H8.14323Z" fill="#0046C7"/>
<path d="M14.8275 10.8547L13.6186 12.9869L12.4096 10.8547H11.6592L13.3128 13.7415V15.0707H13.9521V13.7415L15.5779 10.8547H14.8275Z" fill="#0046C7"/>
<path d="M19.5176 15.0914H22.8596V14.3645H19.5176V15.0914Z" fill="#0046C7"/>
<path d="M19.5176 11.5816H22.8596V10.8547H19.5176V11.5816Z" fill="#0046C7"/>
<path d="M19.5176 13.3263H22.8596V12.5994H19.5176V13.3263Z" fill="#0046C7"/>
<path d="M15.7723 10.8547V11.5609H17.9749L15.5083 15.0984H19.0935V14.3992H16.8285L19.3159 10.8617H15.7723V10.8547Z" fill="#0046C7"/>
</g>
<defs>
<clipPath id="clip0_70_14216">
<rect width="26" height="31" fill="white"/>
</clipPath>
</defs>
</svg>
